<svg width="14" height="14" viewBox="0 0 14 14" fill="none" xmlns="http://www.w3.org/2000/svg">
<path d="M8.30001 13.6C8.13334 13.6889 7.96401 13.7027 7.79201 13.6413C7.61957 13.5804 7.4889 13.4667 7.40001 13.3L6.40001 11.3C6.31112 11.1333 6.29734 10.964 6.35868 10.792C6.41957 10.6196 6.53334 10.4889 6.70001 10.4C6.86668 10.3111 7.03601 10.2973 7.20801 10.3587C7.38045 10.4196 7.51112 10.5333 7.60001 10.7L8.60001 12.7C8.6889 12.8667 8.7029 13.036 8.64201 13.208C8.58068 13.3804 8.46668 13.5111 8.30001 13.6ZM12.3 13.6C12.1333 13.6889 11.964 13.7027 11.792 13.6413C11.6196 13.5804 11.4889 13.4667 11.4 13.3L10.4 11.3C10.3111 11.1333 10.2973 10.964 10.3587 10.792C10.4196 10.6196 10.5333 10.4889 10.7 10.4C10.8667 10.3111 11.036 10.2973 11.208 10.3587C11.3805 10.4196 11.5111 10.5333 11.6 10.7L12.6 12.7C12.6889 12.8667 12.7029 13.036 12.642 13.208C12.5807 13.3804 12.4667 13.5111 12.3 13.6ZM4.30001 13.6C4.13334 13.6889 3.96401 13.7027 3.79201 13.6413C3.61957 13.5804 3.4889 13.4667 3.40001 13.3L2.40001 11.3C2.31112 11.1333 2.29734 10.964 2.35868 10.792C2.41957 10.6196 2.53334 10.4889 2.70001 10.4C2.86668 10.3111 3.03601 10.2973 3.20801 10.3587C3.38045 10.4196 3.51112 10.5333 3.60001 10.7L4.60001 12.7C4.6889 12.8667 4.7029 13.036 4.64201 13.208C4.58068 13.3804 4.46668 13.5111 4.30001 13.6ZM4.00001 9.66666C2.9889 9.66666 2.12512 9.30822 1.40868 8.59133C0.691788 7.87488 0.333344 7.01111 0.333344 6C0.333344 5.07777 0.638899 4.27222 1.25001 3.58333C1.86112 2.89444 2.61668 2.48888 3.51668 2.36666C3.87223 1.73333 4.35845 1.23599 4.97534 0.874662C5.59179 0.513773 6.26668 0.333328 7.00001 0.333328C8.00001 0.333328 8.86934 0.652884 9.60801 1.29199C10.3471 1.93066 10.7945 2.72777 10.95 3.68333C11.7167 3.74999 12.3611 4.06666 12.8833 4.63333C13.4056 5.2 13.6667 5.87777 13.6667 6.66666C13.6667 7.5 13.3751 8.20844 12.792 8.792C12.2085 9.37511 11.5 9.66666 10.6667 9.66666H4.00001ZM4.00001 8.33333H10.6667C11.1333 8.33333 11.5278 8.17222 11.85 7.84999C12.1722 7.52777 12.3333 7.13333 12.3333 6.66666C12.3333 6.2 12.1722 5.80555 11.85 5.48333C11.5278 5.16111 11.1333 5 10.6667 5H9.66668V4.33333C9.66668 3.59999 9.40557 2.97222 8.88334 2.45C8.36112 1.92777 7.73334 1.66666 7.00001 1.66666C6.46668 1.66666 5.98045 1.81111 5.54134 2.1C5.10268 2.38888 4.77223 2.77777 4.55001 3.26666L4.38334 3.66666H3.96668C3.33334 3.68888 2.79179 3.92488 2.34201 4.37466C1.89179 4.82488 1.66668 5.36666 1.66668 6C1.66668 6.64444 1.89445 7.19444 2.35001 7.65C2.80557 8.10555 3.35557 8.33333 4.00001 8.33333Z" fill="#1C1B1F"/>
</svg>
